# xmcd
#
# Track frame offsets: 
#        150
#        16701
#        30419
#        50437
#        63586
#        79323
#        98033
#        109855
#        129273
#
# Disc length: 1936 seconds
#
# Revision: 0
# Processed by: cddbd v1.5.2PL0 Copyright (c) Steve Scherf et al.
# Submitted via: ExactAudioCopy v1.0b1
#
DISCID=67078e09
DTITLE=Brothers Reid - Top of the Old Road
DYEAR=2011
DGENRE=blues
TTITLE0=Done and Dusted
TTITLE1=Flea Circus
TTITLE2=Farmboy Blues
TTITLE3=City Lights
TTITLE4=Roll On
TTITLE5=Let You Down
TTITLE6=The Getaway
TTITLE7=Three Minute Slow Down
TTITLE8=Top of the Old Road
EXTD=
EXTT0=
EXTT1=
EXTT2=
EXTT3=
EXTT4=
EXTT5=
EXTT6=
EXTT7=
EXTT8=
PLAYORDER=
